<svg xmlns="http://www.w3.org/2000/svg" width="375" viewBox="0 0 375 375" height="375" version="1.0"><defs><clipPath id="a"><path d="M 169 286 L 205 286 L 205 374.019531 L 169 374.019531 Z M 169 286"/></clipPath><clipPath id="b"><path d="M 286 169 L 374.019531 169 L 374.019531 205 L 286 205 Z M 286 169"/></clipPath><clipPath id="c"><path d="M 55.898438 55.898438 L 318.976562 55.898438 L 318.976562 318.976562 L 55.898438 318.976562 Z M 55.898438 55.898438"/></clipPath></defs><path fill="#FFBB4E" d="M 368.175781 187.011719 C 368.175781 187.777344 368.101562 188.539062 367.953125 189.289062 C 367.800781 190.042969 367.578125 190.773438 367.285156 191.484375 C 366.992188 192.191406 366.632812 192.867188 366.207031 193.503906 C 365.78125 194.140625 365.296875 194.730469 364.753906 195.273438 C 364.210938 195.816406 363.621094 196.300781 362.980469 196.726562 C 362.34375 197.15625 361.667969 197.515625 360.960938 197.808594 C 360.25 198.101562 359.519531 198.324219 358.769531 198.472656 C 358.015625 198.625 357.253906 198.699219 356.488281 198.699219 C 355.71875 198.699219 354.960938 198.625 354.207031 198.472656 C 353.453125 198.324219 352.722656 198.101562 352.015625 197.808594 C 351.304688 197.515625 350.632812 197.15625 349.996094 196.726562 C 349.355469 196.300781 348.765625 195.816406 348.222656 195.273438 C 347.679688 194.730469 347.195312 194.140625 346.769531 193.503906 C 346.34375 192.867188 345.984375 192.191406 345.691406 191.484375 C 345.394531 190.773438 345.175781 190.042969 345.023438 189.289062 C 344.875 188.539062 344.800781 187.777344 344.800781 187.011719 C 344.800781 186.242188 344.875 185.484375 345.023438 184.730469 C 345.175781 183.976562 345.394531 183.246094 345.691406 182.539062 C 345.984375 181.828125 346.34375 181.15625 346.769531 180.515625 C 347.195312 179.878906 347.679688 179.289062 348.222656 178.746094 C 348.765625 178.203125 349.355469 177.71875 349.996094 177.292969 C 350.632812 176.867188 351.304688 176.503906 352.015625 176.210938 C 352.722656 175.917969 353.453125 175.695312 354.207031 175.546875 C 354.960938 175.398438 355.71875 175.320312 356.488281 175.320312 C 357.253906 175.320312 358.015625 175.398438 358.769531 175.546875 C 359.519531 175.695312 360.25 175.917969 360.960938 176.210938 C 361.667969 176.503906 362.34375 176.867188 362.980469 177.292969 C 363.621094 177.71875 364.210938 178.203125 364.753906 178.746094 C 365.296875 179.289062 365.78125 179.878906 366.207031 180.515625 C 366.632812 181.15625 366.992188 181.828125 367.285156 182.539062 C 367.578125 183.246094 367.800781 183.976562 367.953125 184.730469 C 368.101562 185.484375 368.175781 186.242188 368.175781 187.011719 Z M 368.175781 187.011719"/><path fill="#FFBB4E" d="M 198.699219 356.488281 C 198.699219 357.253906 198.625 358.015625 198.472656 358.769531 C 198.324219 359.519531 198.101562 360.25 197.808594 360.960938 C 197.515625 361.667969 197.15625 362.34375 196.726562 362.980469 C 196.300781 363.621094 195.816406 364.210938 195.273438 364.753906 C 194.730469 365.296875 194.140625 365.78125 193.503906 366.207031 C 192.867188 366.632812 192.191406 366.992188 191.484375 367.285156 C 190.773438 367.578125 190.042969 367.800781 189.289062 367.953125 C 188.539062 368.101562 187.777344 368.175781 187.011719 368.175781 C 186.242188 368.175781 185.484375 368.101562 184.730469 367.953125 C 183.976562 367.800781 183.246094 367.578125 182.539062 367.285156 C 181.828125 366.992188 181.15625 366.632812 180.515625 366.207031 C 179.878906 365.78125 179.289062 365.296875 178.746094 364.753906 C 178.203125 364.210938 177.71875 363.621094 177.292969 362.980469 C 176.867188 362.34375 176.503906 361.667969 176.210938 360.960938 C 175.917969 360.25 175.695312 359.519531 175.546875 358.769531 C 175.398438 358.015625 175.320312 357.253906 175.320312 356.488281 C 175.320312 355.71875 175.398438 354.960938 175.546875 354.207031 C 175.695312 353.453125 175.917969 352.722656 176.210938 352.015625 C 176.503906 351.304688 176.867188 350.632812 177.292969 349.996094 C 177.71875 349.355469 178.203125 348.765625 178.746094 348.222656 C 179.289062 347.679688 179.878906 347.195312 180.515625 346.769531 C 181.15625 346.34375 181.828125 345.984375 182.539062 345.691406 C 183.246094 345.394531 183.976562 345.175781 184.730469 345.023438 C 185.484375 344.875 186.242188 344.800781 187.011719 344.800781 C 187.777344 344.800781 188.539062 344.875 189.289062 345.023438 C 190.042969 345.175781 190.773438 345.394531 191.484375 345.691406 C 192.191406 345.984375 192.867188 346.34375 193.503906 346.769531 C 194.140625 347.195312 194.730469 347.679688 195.273438 348.222656 C 195.816406 348.765625 196.300781 349.355469 196.726562 349.996094 C 197.15625 350.632812 197.515625 351.304688 197.808594 352.015625 C 198.101562 352.722656 198.324219 353.453125 198.472656 354.207031 C 198.625 354.960938 198.699219 355.71875 198.699219 356.488281 Z M 198.699219 356.488281"/><path fill="#FFBB4E" d="M 29.21875 187.011719 C 29.21875 187.777344 29.144531 188.539062 28.996094 189.289062 C 28.847656 190.042969 28.625 190.773438 28.332031 191.484375 C 28.035156 192.191406 27.675781 192.867188 27.25 193.503906 C 26.824219 194.140625 26.339844 194.730469 25.796875 195.273438 C 25.253906 195.816406 24.664062 196.300781 24.027344 196.726562 C 23.386719 197.15625 22.714844 197.515625 22.003906 197.808594 C 21.296875 198.101562 20.566406 198.324219 19.8125 198.472656 C 19.058594 198.625 18.300781 198.699219 17.53125 198.699219 C 16.765625 198.699219 16.003906 198.625 15.253906 198.472656 C 14.5 198.324219 13.769531 198.101562 13.058594 197.808594 C 12.351562 197.515625 11.675781 197.15625 11.039062 196.726562 C 10.402344 196.300781 9.808594 195.816406 9.265625 195.273438 C 8.726562 194.730469 8.242188 194.140625 7.8125 193.503906 C 7.386719 192.867188 7.027344 192.191406 6.734375 191.484375 C 6.441406 190.773438 6.21875 190.042969 6.070312 189.289062 C 5.917969 188.539062 5.84375 187.777344 5.84375 187.011719 C 5.84375 186.242188 5.917969 185.484375 6.070312 184.730469 C 6.21875 183.976562 6.441406 183.246094 6.734375 182.539062 C 7.027344 181.828125 7.386719 181.15625 7.8125 180.515625 C 8.242188 179.878906 8.726562 179.289062 9.265625 178.746094 C 9.808594 178.203125 10.402344 177.71875 11.039062 177.292969 C 11.675781 176.867188 12.351562 176.503906 13.058594 176.210938 C 13.769531 175.917969 14.5 175.695312 15.253906 175.546875 C 16.003906 175.398438 16.765625 175.320312 17.53125 175.320312 C 18.300781 175.320312 19.058594 175.398438 19.8125 175.546875 C 20.566406 175.695312 21.296875 175.917969 22.003906 176.210938 C 22.714844 176.503906 23.386719 176.867188 24.027344 177.292969 C 24.664062 177.71875 25.253906 178.203125 25.796875 178.746094 C 26.339844 179.289062 26.824219 179.878906 27.25 180.515625 C 27.675781 181.15625 28.035156 181.828125 28.332031 182.539062 C 28.625 183.246094 28.847656 183.976562 28.996094 184.730469 C 29.144531 185.484375 29.21875 186.242188 29.21875 187.011719 Z M 29.21875 187.011719"/><path fill="#D8584D" d="M 362.332031 99.347656 C 362.332031 100.117188 362.257812 100.875 362.109375 101.628906 C 361.957031 102.382812 361.734375 103.113281 361.441406 103.820312 C 361.148438 104.53125 360.789062 105.203125 360.363281 105.84375 C 359.9375 106.480469 359.453125 107.070312 358.910156 107.613281 C 358.367188 108.15625 357.777344 108.640625 357.136719 109.066406 C 356.5 109.492188 355.824219 109.855469 355.117188 110.148438 C 354.40625 110.441406 353.675781 110.664062 352.925781 110.8125 C 352.171875 110.960938 351.410156 111.039062 350.644531 111.039062 C 349.875 111.039062 349.117188 110.960938 348.363281 110.8125 C 347.609375 110.664062 346.878906 110.441406 346.171875 110.148438 C 345.460938 109.855469 344.789062 109.492188 344.148438 109.066406 C 343.511719 108.640625 342.921875 108.15625 342.378906 107.613281 C 341.835938 107.070312 341.351562 106.480469 340.925781 105.84375 C 340.5 105.203125 340.140625 104.53125 339.84375 103.820312 C 339.550781 103.113281 339.328125 102.382812 339.179688 101.628906 C 339.03125 100.875 338.957031 100.117188 338.957031 99.347656 C 338.957031 98.582031 339.03125 97.820312 339.179688 97.070312 C 339.328125 96.316406 339.550781 95.585938 339.84375 94.875 C 340.140625 94.167969 340.5 93.492188 340.925781 92.855469 C 341.351562 92.21875 341.835938 91.628906 342.378906 91.085938 C 342.921875 90.542969 343.511719 90.058594 344.148438 89.628906 C 344.789062 89.203125 345.460938 88.84375 346.171875 88.550781 C 346.878906 88.257812 347.609375 88.035156 348.363281 87.886719 C 349.117188 87.734375 349.875 87.660156 350.644531 87.660156 C 351.410156 87.660156 352.171875 87.734375 352.925781 87.886719 C 353.675781 88.035156 354.40625 88.257812 355.117188 88.550781 C 355.824219 88.84375 356.5 89.203125 357.136719 89.628906 C 357.777344 90.058594 358.367188 90.542969 358.910156 91.085938 C 359.453125 91.628906 359.9375 92.21875 360.363281 92.855469 C 360.789062 93.492188 361.148438 94.167969 361.441406 94.875 C 361.734375 95.585938 361.957031 96.316406 362.109375 97.070312 C 362.257812 97.820312 362.332031 98.582031 362.332031 99.347656 Z M 362.332031 99.347656"/><path fill="#D8584D" d="M 362.332031 274.671875 C 362.332031 275.4375 362.257812 276.199219 362.109375 276.953125 C 361.957031 277.703125 361.734375 278.433594 361.441406 279.144531 C 361.148438 279.851562 360.789062 280.527344 360.363281 281.164062 C 359.9375 281.800781 359.453125 282.394531 358.910156 282.9375 C 358.367188 283.476562 357.777344 283.964844 357.136719 284.390625 C 356.5 284.816406 355.824219 285.175781 355.117188 285.46875 C 354.40625 285.761719 353.675781 285.984375 352.925781 286.132812 C 352.171875 286.285156 351.410156 286.359375 350.644531 286.359375 C 349.875 286.359375 349.117188 286.285156 348.363281 286.132812 C 347.609375 285.984375 346.878906 285.761719 346.171875 285.46875 C 345.460938 285.175781 344.789062 284.816406 344.148438 284.390625 C 343.511719 283.964844 342.921875 283.476562 342.378906 282.9375 C 341.835938 282.394531 341.351562 281.800781 340.925781 281.164062 C 340.5 280.527344 340.140625 279.851562 339.84375 279.144531 C 339.550781 278.433594 339.328125 277.703125 339.179688 276.953125 C 339.03125 276.199219 338.957031 275.4375 338.957031 274.671875 C 338.957031 273.902344 339.03125 273.144531 339.179688 272.390625 C 339.328125 271.636719 339.550781 270.90625 339.84375 270.199219 C 340.140625 269.488281 340.5 268.816406 340.925781 268.175781 C 341.351562 267.539062 341.835938 266.949219 342.378906 266.40625 C 342.921875 265.863281 343.511719 265.378906 344.148438 264.953125 C 344.789062 264.527344 345.460938 264.167969 346.171875 263.871094 C 346.878906 263.578125 347.609375 263.355469 348.363281 263.207031 C 349.117188 263.058594 349.875 262.984375 350.644531 262.984375 C 351.410156 262.984375 352.171875 263.058594 352.925781 263.207031 C 353.675781 263.355469 354.40625 263.578125 355.117188 263.871094 C 355.824219 264.167969 356.5 264.527344 357.136719 264.953125 C 357.777344 265.378906 358.367188 265.863281 358.910156 266.40625 C 359.453125 266.949219 359.9375 267.539062 360.363281 268.175781 C 360.789062 268.816406 361.148438 269.488281 361.441406 270.199219 C 361.734375 270.90625 361.957031 271.636719 362.109375 272.390625 C 362.257812 273.144531 362.332031 273.902344 362.332031 274.671875 Z M 362.332031 274.671875"/><path fill="#D8584D" d="M 111.039062 350.644531 C 111.039062 351.410156 110.960938 352.171875 110.8125 352.925781 C 110.664062 353.675781 110.441406 354.40625 110.148438 355.117188 C 109.855469 355.824219 109.492188 356.5 109.066406 357.136719 C 108.640625 357.777344 108.15625 358.367188 107.613281 358.910156 C 107.070312 359.453125 106.480469 359.9375 105.84375 360.363281 C 105.203125 360.789062 104.53125 361.148438 103.820312 361.441406 C 103.113281 361.734375 102.382812 361.957031 101.628906 362.109375 C 100.875 362.257812 100.117188 362.332031 99.347656 362.332031 C 98.582031 362.332031 97.820312 362.257812 97.070312 362.109375 C 96.316406 361.957031 95.585938 361.734375 94.875 361.441406 C 94.167969 361.148438 93.492188 360.789062 92.855469 360.363281 C 92.21875 359.9375 91.628906 359.453125 91.085938 358.910156 C 90.542969 358.367188 90.058594 357.777344 89.628906 357.136719 C 89.203125 356.5 88.84375 355.824219 88.550781 355.117188 C 88.257812 354.40625 88.035156 353.675781 87.886719 352.925781 C 87.734375 352.171875 87.660156 351.410156 87.660156 350.644531 C 87.660156 349.875 87.734375 349.117188 87.886719 348.363281 C 88.035156 347.609375 88.257812 346.878906 88.550781 346.171875 C 88.84375 345.460938 89.203125 344.789062 89.628906 344.148438 C 90.058594 343.511719 90.542969 342.921875 91.085938 342.378906 C 91.628906 341.835938 92.21875 341.351562 92.855469 340.925781 C 93.492188 340.5 94.167969 340.140625 94.875 339.84375 C 95.585938 339.550781 96.316406 339.328125 97.070312 339.179688 C 97.820312 339.03125 98.582031 338.957031 99.347656 338.957031 C 100.117188 338.957031 100.875 339.03125 101.628906 339.179688 C 102.382812 339.328125 103.113281 339.550781 103.820312 339.84375 C 104.53125 340.140625 105.203125 340.5 105.84375 340.925781 C 106.480469 341.351562 107.070312 341.835938 107.613281 342.378906 C 108.15625 342.921875 108.640625 343.511719 109.066406 344.148438 C 109.492188 344.789062 109.855469 345.460938 110.148438 346.171875 C 110.441406 346.878906 110.664062 347.609375 110.8125 348.363281 C 110.960938 349.117188 111.039062 349.875 111.039062 350.644531 Z M 111.039062 350.644531"/><path fill="#D8584D" d="M 286.359375 350.644531 C 286.359375 351.410156 286.285156 352.171875 286.132812 352.925781 C 285.984375 353.675781 285.761719 354.40625 285.46875 355.117188 C 285.175781 355.824219 284.816406 356.5 284.390625 357.136719 C 283.964844 357.777344 283.476562 358.367188 282.9375 358.910156 C 282.394531 359.453125 281.800781 359.9375 281.164062 360.363281 C 280.527344 360.789062 279.851562 361.148438 279.144531 361.441406 C 278.433594 361.734375 277.703125 361.957031 276.953125 362.109375 C 276.199219 362.257812 275.4375 362.332031 274.671875 362.332031 C 273.902344 362.332031 273.144531 362.257812 272.390625 362.109375 C 271.636719 361.957031 270.90625 361.734375 270.199219 361.441406 C 269.488281 361.148438 268.816406 360.789062 268.175781 360.363281 C 267.539062 359.9375 266.949219 359.453125 266.40625 358.910156 C 265.863281 358.367188 265.378906 357.777344 264.953125 357.136719 C 264.527344 356.5 264.167969 355.824219 263.871094 355.117188 C 263.578125 354.40625 263.355469 353.675781 263.207031 352.925781 C 263.058594 352.171875 262.984375 351.410156 262.984375 350.644531 C 262.984375 349.875 263.058594 349.117188 263.207031 348.363281 C 263.355469 347.609375 263.578125 346.878906 263.871094 346.171875 C 264.167969 345.460938 264.527344 344.789062 264.953125 344.148438 C 265.378906 343.511719 265.863281 342.921875 266.40625 342.378906 C 266.949219 341.835938 267.539062 341.351562 268.175781 340.925781 C 268.816406 340.5 269.488281 340.140625 270.199219 339.84375 C 270.90625 339.550781 271.636719 339.328125 272.390625 339.179688 C 273.144531 339.03125 273.902344 338.957031 274.671875 338.957031 C 275.4375 338.957031 276.199219 339.03125 276.953125 339.179688 C 277.703125 339.328125 278.433594 339.550781 279.144531 339.84375 C 279.851562 340.140625 280.527344 340.5 281.164062 340.925781 C 281.800781 341.351562 282.394531 341.835938 282.9375 342.378906 C 283.476562 342.921875 283.964844 343.511719 284.390625 344.148438 C 284.816406 344.789062 285.175781 345.460938 285.46875 346.171875 C 285.761719 346.878906 285.984375 347.609375 286.132812 348.363281 C 286.285156 349.117188 286.359375 349.875 286.359375 350.644531 Z M 286.359375 350.644531"/><path fill="#D8584D" d="M 35.0625 274.671875 C 35.0625 275.4375 34.988281 276.199219 34.839844 276.953125 C 34.691406 277.703125 34.46875 278.433594 34.175781 279.144531 C 33.882812 279.851562 33.519531 280.527344 33.09375 281.164062 C 32.667969 281.800781 32.183594 282.394531 31.640625 282.9375 C 31.097656 283.476562 30.507812 283.964844 29.871094 284.390625 C 29.230469 284.816406 28.558594 285.175781 27.847656 285.46875 C 27.140625 285.761719 26.410156 285.984375 25.65625 286.132812 C 24.902344 286.285156 24.144531 286.359375 23.375 286.359375 C 22.609375 286.359375 21.847656 286.285156 21.097656 286.132812 C 20.34375 285.984375 19.613281 285.761719 18.902344 285.46875 C 18.195312 285.175781 17.519531 284.816406 16.882812 284.390625 C 16.246094 283.964844 15.652344 283.476562 15.113281 282.9375 C 14.570312 282.394531 14.085938 281.800781 13.65625 281.164062 C 13.230469 280.527344 12.871094 279.851562 12.578125 279.144531 C 12.285156 278.433594 12.0625 277.703125 11.914062 276.953125 C 11.761719 276.199219 11.6875 275.4375 11.6875 274.671875 C 11.6875 273.902344 11.761719 273.144531 11.914062 272.390625 C 12.0625 271.636719 12.285156 270.90625 12.578125 270.199219 C 12.871094 269.488281 13.230469 268.816406 13.65625 268.175781 C 14.085938 267.539062 14.570312 266.949219 15.113281 266.40625 C 15.652344 265.863281 16.246094 265.378906 16.882812 264.953125 C 17.519531 264.527344 18.195312 264.167969 18.902344 263.871094 C 19.613281 263.578125 20.34375 263.355469 21.097656 263.207031 C 21.847656 263.058594 22.609375 262.984375 23.375 262.984375 C 24.144531 262.984375 24.902344 263.058594 25.65625 263.207031 C 26.410156 263.355469 27.140625 263.578125 27.847656 263.871094 C 28.558594 264.167969 29.230469 264.527344 29.871094 264.953125 C 30.507812 265.378906 31.097656 265.863281 31.640625 266.40625 C 32.183594 266.949219 32.667969 267.539062 33.09375 268.175781 C 33.519531 268.816406 33.882812 269.488281 34.175781 270.199219 C 34.46875 270.90625 34.691406 271.636719 34.839844 272.390625 C 34.988281 273.144531 35.0625 273.902344 35.0625 274.671875 Z M 35.0625 274.671875"/><path fill="#D8584D" d="M 35.0625 99.347656 C 35.0625 100.117188 34.988281 100.875 34.839844 101.628906 C 34.691406 102.382812 34.46875 103.113281 34.175781 103.820312 C 33.882812 104.53125 33.519531 105.203125 33.09375 105.84375 C 32.667969 106.480469 32.183594 107.070312 31.640625 107.613281 C 31.097656 108.15625 30.507812 108.640625 29.871094 109.066406 C 29.230469 109.492188 28.558594 109.855469 27.847656 110.148438 C 27.140625 110.441406 26.410156 110.664062 25.65625 110.8125 C 24.902344 110.960938 24.144531 111.039062 23.375 111.039062 C 22.609375 111.039062 21.847656 110.960938 21.097656 110.8125 C 20.34375 110.664062 19.613281 110.441406 18.902344 110.148438 C 18.195312 109.855469 17.519531 109.492188 16.882812 109.066406 C 16.246094 108.640625 15.652344 108.15625 15.113281 107.613281 C 14.570312 107.070312 14.085938 106.480469 13.65625 105.84375 C 13.230469 105.203125 12.871094 104.53125 12.578125 103.820312 C 12.285156 103.113281 12.0625 102.382812 11.914062 101.628906 C 11.761719 100.875 11.6875 100.117188 11.6875 99.347656 C 11.6875 98.582031 11.761719 97.820312 11.914062 97.070312 C 12.0625 96.316406 12.285156 95.585938 12.578125 94.875 C 12.871094 94.167969 13.230469 93.492188 13.65625 92.855469 C 14.085938 92.21875 14.570312 91.628906 15.113281 91.085938 C 15.652344 90.542969 16.246094 90.058594 16.882812 89.628906 C 17.519531 89.203125 18.195312 88.84375 18.902344 88.550781 C 19.613281 88.257812 20.34375 88.035156 21.097656 87.886719 C 21.847656 87.734375 22.609375 87.660156 23.375 87.660156 C 24.144531 87.660156 24.902344 87.734375 25.65625 87.886719 C 26.410156 88.035156 27.140625 88.257812 27.847656 88.550781 C 28.558594 88.84375 29.230469 89.203125 29.871094 89.628906 C 30.507812 90.058594 31.097656 90.542969 31.640625 91.085938 C 32.183594 91.628906 32.667969 92.21875 33.09375 92.855469 C 33.519531 93.492188 33.882812 94.167969 34.175781 94.875 C 34.46875 95.585938 34.691406 96.316406 34.839844 97.070312 C 34.988281 97.820312 35.0625 98.582031 35.0625 99.347656 Z M 35.0625 99.347656"/><path fill="#FFBB4E" d="M 198.699219 17.53125 C 198.699219 18.300781 198.625 19.058594 198.472656 19.8125 C 198.324219 20.566406 198.101562 21.296875 197.808594 22.003906 C 197.515625 22.714844 197.15625 23.386719 196.726562 24.027344 C 196.300781 24.664062 195.816406 25.253906 195.273438 25.796875 C 194.730469 26.339844 194.140625 26.824219 193.503906 27.25 C 192.867188 27.675781 192.191406 28.035156 191.484375 28.332031 C 190.773438 28.625 190.042969 28.847656 189.289062 28.996094 C 188.539062 29.144531 187.777344 29.21875 187.011719 29.21875 C 186.242188 29.21875 185.484375 29.144531 184.730469 28.996094 C 183.976562 28.847656 183.246094 28.625 182.539062 28.332031 C 181.828125 28.035156 181.15625 27.675781 180.515625 27.25 C 179.878906 26.824219 179.289062 26.339844 178.746094 25.796875 C 178.203125 25.253906 177.71875 24.664062 177.292969 24.027344 C 176.867188 23.386719 176.503906 22.714844 176.210938 22.003906 C 175.917969 21.296875 175.695312 20.566406 175.546875 19.8125 C 175.398438 19.058594 175.320312 18.300781 175.320312 17.53125 C 175.320312 16.765625 175.398438 16.003906 175.546875 15.25 C 175.695312 14.5 175.917969 13.769531 176.210938 13.058594 C 176.503906 12.351562 176.867188 11.675781 177.292969 11.039062 C 177.71875 10.402344 178.203125 9.808594 178.746094 9.265625 C 179.289062 8.726562 179.878906 8.242188 180.515625 7.8125 C 181.15625 7.386719 181.828125 7.027344 182.539062 6.734375 C 183.246094 6.441406 183.976562 6.21875 184.730469 6.070312 C 185.484375 5.917969 186.242188 5.84375 187.011719 5.84375 C 187.777344 5.84375 188.539062 5.917969 189.289062 6.070312 C 190.042969 6.21875 190.773438 6.441406 191.484375 6.734375 C 192.191406 7.027344 192.867188 7.386719 193.503906 7.8125 C 194.140625 8.242188 194.730469 8.726562 195.273438 9.265625 C 195.816406 9.808594 196.300781 10.402344 196.726562 11.039062 C 197.15625 11.675781 197.515625 12.351562 197.808594 13.058594 C 198.101562 13.769531 198.324219 14.5 198.472656 15.253906 C 198.625 16.003906 198.699219 16.765625 198.699219 17.53125 Z M 198.699219 17.53125"/><path fill="#D8584D" d="M 286.359375 23.375 C 286.359375 24.144531 286.285156 24.902344 286.132812 25.65625 C 285.984375 26.410156 285.761719 27.140625 285.46875 27.847656 C 285.175781 28.558594 284.816406 29.230469 284.390625 29.871094 C 283.964844 30.507812 283.476562 31.097656 282.9375 31.640625 C 282.394531 32.183594 281.800781 32.667969 281.164062 33.09375 C 280.527344 33.519531 279.851562 33.882812 279.144531 34.175781 C 278.433594 34.46875 277.703125 34.691406 276.953125 34.839844 C 276.199219 34.988281 275.4375 35.0625 274.671875 35.0625 C 273.902344 35.0625 273.144531 34.988281 272.390625 34.839844 C 271.636719 34.691406 270.90625 34.46875 270.199219 34.175781 C 269.488281 33.882812 268.816406 33.519531 268.175781 33.09375 C 267.539062 32.667969 266.949219 32.183594 266.40625 31.640625 C 265.863281 31.097656 265.378906 30.507812 264.953125 29.871094 C 264.527344 29.230469 264.167969 28.558594 263.871094 27.847656 C 263.578125 27.140625 263.355469 26.410156 263.207031 25.65625 C 263.058594 24.902344 262.984375 24.144531 262.984375 23.375 C 262.984375 22.609375 263.058594 21.847656 263.207031 21.097656 C 263.355469 20.34375 263.578125 19.613281 263.871094 18.902344 C 264.167969 18.195312 264.527344 17.519531 264.953125 16.882812 C 265.378906 16.246094 265.863281 15.652344 266.40625 15.113281 C 266.949219 14.570312 267.539062 14.085938 268.175781 13.65625 C 268.816406 13.230469 269.488281 12.871094 270.199219 12.578125 C 270.90625 12.285156 271.636719 12.0625 272.390625 11.914062 C 273.144531 11.761719 273.902344 11.6875 274.671875 11.6875 C 275.4375 11.6875 276.199219 11.761719 276.953125 11.914062 C 277.703125 12.0625 278.433594 12.285156 279.144531 12.578125 C 279.851562 12.871094 280.527344 13.230469 281.164062 13.65625 C 281.800781 14.085938 282.394531 14.570312 282.9375 15.113281 C 283.476562 15.652344 283.964844 16.246094 284.390625 16.882812 C 284.816406 17.519531 285.175781 18.195312 285.46875 18.902344 C 285.761719 19.613281 285.984375 20.34375 286.132812 21.097656 C 286.285156 21.847656 286.359375 22.609375 286.359375 23.375 Z M 286.359375 23.375"/><path fill="#D8584D" d="M 111.039062 23.375 C 111.039062 24.144531 110.960938 24.902344 110.8125 25.65625 C 110.664062 26.410156 110.441406 27.140625 110.148438 27.847656 C 109.855469 28.558594 109.492188 29.230469 109.066406 29.871094 C 108.640625 30.507812 108.15625 31.097656 107.613281 31.640625 C 107.070312 32.183594 106.480469 32.667969 105.84375 33.09375 C 105.203125 33.519531 104.53125 33.882812 103.820312 34.175781 C 103.113281 34.46875 102.382812 34.691406 101.628906 34.839844 C 100.875 34.988281 100.117188 35.0625 99.347656 35.0625 C 98.582031 35.0625 97.820312 34.988281 97.070312 34.839844 C 96.316406 34.691406 95.585938 34.46875 94.875 34.175781 C 94.167969 33.882812 93.492188 33.519531 92.855469 33.09375 C 92.21875 32.667969 91.628906 32.183594 91.085938 31.640625 C 90.542969 31.097656 90.058594 30.507812 89.628906 29.871094 C 89.203125 29.230469 88.84375 28.558594 88.550781 27.847656 C 88.257812 27.140625 88.035156 26.410156 87.886719 25.65625 C 87.734375 24.902344 87.660156 24.144531 87.660156 23.375 C 87.660156 22.609375 87.734375 21.847656 87.886719 21.097656 C 88.035156 20.34375 88.257812 19.613281 88.550781 18.902344 C 88.84375 18.195312 89.203125 17.519531 89.628906 16.882812 C 90.058594 16.246094 90.542969 15.652344 91.085938 15.113281 C 91.628906 14.570312 92.21875 14.085938 92.855469 13.65625 C 93.492188 13.230469 94.167969 12.871094 94.875 12.578125 C 95.585938 12.285156 96.316406 12.0625 97.070312 11.914062 C 97.820312 11.761719 98.582031 11.6875 99.347656 11.6875 C 100.117188 11.6875 100.875 11.761719 101.628906 11.914062 C 102.382812 12.0625 103.113281 12.285156 103.820312 12.578125 C 104.53125 12.871094 105.203125 13.230469 105.84375 13.65625 C 106.480469 14.085938 107.070312 14.570312 107.613281 15.113281 C 108.15625 15.652344 108.640625 16.246094 109.066406 16.882812 C 109.492188 17.519531 109.855469 18.195312 110.148438 18.902344 C 110.441406 19.613281 110.664062 20.34375 110.8125 21.097656 C 110.960938 21.847656 111.039062 22.609375 111.039062 23.375 Z M 111.039062 23.375"/><path fill="#5292D2" d="M 105.191406 105.191406 L 268.828125 105.191406 L 268.828125 268.828125 L 105.191406 268.828125 Z M 105.191406 105.191406"/><path fill="#E5E4E9" d="M 128.570312 128.570312 L 245.449219 128.570312 L 245.449219 245.449219 L 128.570312 245.449219 Z M 128.570312 128.570312"/><path fill="#ACABAF" d="M 140.257812 140.257812 L 245.449219 140.257812 L 245.449219 128.570312 L 128.570312 128.570312 L 128.570312 245.449219 L 140.257812 245.449219 Z M 140.257812 140.257812"/><path d="M 245.449219 251.292969 L 128.570312 251.292969 C 125.0625 251.292969 122.726562 248.957031 122.726562 245.449219 L 122.726562 128.570312 C 122.726562 125.0625 125.0625 122.726562 128.570312 122.726562 L 245.449219 122.726562 C 248.957031 122.726562 251.292969 125.0625 251.292969 128.570312 L 251.292969 245.449219 C 251.292969 248.957031 248.957031 251.292969 245.449219 251.292969 Z M 134.414062 239.605469 L 239.605469 239.605469 L 239.605469 134.414062 L 134.414062 134.414062 Z M 134.414062 239.605469"/><path d="M 268.828125 274.671875 L 105.191406 274.671875 C 101.6875 274.671875 99.347656 272.332031 99.347656 268.828125 L 99.347656 105.191406 C 99.347656 101.6875 101.6875 99.347656 105.191406 99.347656 L 268.828125 99.347656 C 272.332031 99.347656 274.671875 101.6875 274.671875 105.191406 L 274.671875 268.828125 C 274.671875 272.332031 272.332031 274.671875 268.828125 274.671875 Z M 111.039062 262.984375 L 262.984375 262.984375 L 262.984375 111.039062 L 111.039062 111.039062 Z M 111.039062 262.984375"/><path d="M 181.167969 163.632812 L 157.789062 163.632812 C 154.285156 163.632812 151.945312 165.972656 151.945312 169.476562 L 151.945312 210.386719 L 163.632812 210.386719 L 163.632812 198.699219 L 175.320312 198.699219 L 175.320312 210.386719 L 187.011719 210.386719 L 187.011719 169.476562 C 187.011719 165.972656 184.671875 163.632812 181.167969 163.632812 Z M 163.632812 187.011719 L 163.632812 175.320312 L 175.320312 175.320312 L 175.320312 187.011719 Z M 163.632812 187.011719"/><path d="M 222.074219 175.320312 L 222.074219 163.632812 L 198.699219 163.632812 L 198.699219 175.320312 L 204.542969 175.320312 L 204.542969 198.699219 L 198.699219 198.699219 L 198.699219 210.386719 L 222.074219 210.386719 L 222.074219 198.699219 L 216.230469 198.699219 L 216.230469 175.320312 Z M 222.074219 175.320312"/><path d="M 274.671875 5.84375 C 267.074219 5.84375 260.644531 10.519531 258.308594 17.53125 L 222.074219 17.53125 C 218.566406 17.53125 216.230469 19.871094 216.230469 23.375 L 216.230469 87.660156 L 227.917969 87.660156 L 227.917969 29.21875 L 258.308594 29.21875 C 260.644531 36.234375 267.074219 40.910156 274.671875 40.910156 C 284.605469 40.910156 292.203125 33.3125 292.203125 23.375 C 292.203125 13.441406 284.605469 5.84375 274.671875 5.84375 Z M 274.671875 29.21875 C 271.164062 29.21875 268.828125 26.882812 268.828125 23.375 C 268.828125 19.871094 271.164062 17.53125 274.671875 17.53125 C 278.175781 17.53125 280.515625 19.871094 280.515625 23.375 C 280.515625 26.882812 278.175781 29.21875 274.671875 29.21875 Z M 274.671875 29.21875"/><path d="M 187.011719 0 C 177.074219 0 169.476562 7.597656 169.476562 17.53125 C 169.476562 25.128906 174.152344 31.558594 181.167969 33.894531 L 181.167969 87.660156 L 192.855469 87.660156 L 192.855469 33.894531 C 199.867188 31.558594 204.542969 25.128906 204.542969 17.53125 C 204.542969 7.597656 196.945312 0 187.011719 0 Z M 187.011719 23.375 C 183.503906 23.375 181.167969 21.039062 181.167969 17.53125 C 181.167969 14.027344 183.503906 11.6875 187.011719 11.6875 C 190.515625 11.6875 192.855469 14.027344 192.855469 17.53125 C 192.855469 21.039062 190.515625 23.375 187.011719 23.375 Z M 187.011719 23.375"/><path d="M 151.945312 17.53125 L 115.710938 17.53125 C 113.375 10.519531 106.945312 5.84375 99.347656 5.84375 C 89.414062 5.84375 81.816406 13.441406 81.816406 23.375 C 81.816406 33.3125 89.414062 40.910156 99.347656 40.910156 C 106.945312 40.910156 113.375 36.234375 115.710938 29.21875 L 146.101562 29.21875 L 146.101562 87.660156 L 157.789062 87.660156 L 157.789062 23.375 C 157.789062 19.871094 155.453125 17.53125 151.945312 17.53125 Z M 99.347656 29.21875 C 95.84375 29.21875 93.503906 26.882812 93.503906 23.375 C 93.503906 19.871094 95.84375 17.53125 99.347656 17.53125 C 102.855469 17.53125 105.191406 19.871094 105.191406 23.375 C 105.191406 26.882812 102.855469 29.21875 99.347656 29.21875 Z M 99.347656 29.21875"/><g clip-path="url(#a)"><path d="M 192.855469 340.125 L 192.855469 286.359375 L 181.167969 286.359375 L 181.167969 340.125 C 174.152344 342.460938 169.476562 348.890625 169.476562 356.488281 C 169.476562 366.421875 177.074219 374.019531 187.011719 374.019531 C 196.945312 374.019531 204.542969 366.421875 204.542969 356.488281 C 204.542969 348.890625 199.867188 342.460938 192.855469 340.125 Z M 187.011719 362.332031 C 183.503906 362.332031 181.167969 359.996094 181.167969 356.488281 C 181.167969 352.980469 183.503906 350.644531 187.011719 350.644531 C 190.515625 350.644531 192.855469 352.980469 192.855469 356.488281 C 192.855469 359.996094 190.515625 362.332031 187.011719 362.332031 Z M 187.011719 362.332031"/></g><path d="M 146.101562 344.800781 L 115.710938 344.800781 C 113.375 337.785156 106.945312 333.113281 99.347656 333.113281 C 89.414062 333.113281 81.816406 340.710938 81.816406 350.644531 C 81.816406 360.578125 89.414062 368.175781 99.347656 368.175781 C 106.945312 368.175781 113.375 363.5 115.710938 356.488281 L 151.945312 356.488281 C 155.453125 356.488281 157.789062 354.148438 157.789062 350.644531 L 157.789062 286.359375 L 146.101562 286.359375 Z M 99.347656 356.488281 C 95.84375 356.488281 93.503906 354.148438 93.503906 350.644531 C 93.503906 347.136719 95.84375 344.800781 99.347656 344.800781 C 102.855469 344.800781 105.191406 347.136719 105.191406 350.644531 C 105.191406 354.148438 102.855469 356.488281 99.347656 356.488281 Z M 99.347656 356.488281"/><path d="M 274.671875 333.113281 C 267.074219 333.113281 260.644531 337.785156 258.308594 344.800781 L 227.917969 344.800781 L 227.917969 286.359375 L 216.230469 286.359375 L 216.230469 350.644531 C 216.230469 354.148438 218.566406 356.488281 222.074219 356.488281 L 258.308594 356.488281 C 260.644531 363.5 267.074219 368.175781 274.671875 368.175781 C 284.605469 368.175781 292.203125 360.578125 292.203125 350.644531 C 292.203125 340.710938 284.605469 333.113281 274.671875 333.113281 Z M 274.671875 356.488281 C 271.164062 356.488281 268.828125 354.148438 268.828125 350.644531 C 268.828125 347.136719 271.164062 344.800781 274.671875 344.800781 C 278.175781 344.800781 280.515625 347.136719 280.515625 350.644531 C 280.515625 354.148438 278.175781 356.488281 274.671875 356.488281 Z M 274.671875 356.488281"/><path d="M 356.488281 258.308594 L 356.488281 222.074219 C 356.488281 218.566406 354.148438 216.230469 350.644531 216.230469 L 286.359375 216.230469 L 286.359375 227.917969 L 344.800781 227.917969 L 344.800781 258.308594 C 337.785156 260.644531 333.113281 267.074219 333.113281 274.671875 C 333.113281 284.605469 340.710938 292.203125 350.644531 292.203125 C 360.578125 292.203125 368.175781 284.605469 368.175781 274.671875 C 368.175781 267.074219 363.5 260.644531 356.488281 258.308594 Z M 350.644531 280.515625 C 347.136719 280.515625 344.800781 278.175781 344.800781 274.671875 C 344.800781 271.164062 347.136719 268.828125 350.644531 268.828125 C 354.148438 268.828125 356.488281 271.164062 356.488281 274.671875 C 356.488281 278.175781 354.148438 280.515625 350.644531 280.515625 Z M 350.644531 280.515625"/><g clip-path="url(#b)"><path d="M 356.488281 169.476562 C 348.890625 169.476562 342.460938 174.152344 340.125 181.167969 L 286.359375 181.167969 L 286.359375 192.855469 L 340.125 192.855469 C 342.460938 199.867188 348.890625 204.542969 356.488281 204.542969 C 366.421875 204.542969 374.019531 196.945312 374.019531 187.011719 C 374.019531 177.074219 366.421875 169.476562 356.488281 169.476562 Z M 356.488281 192.855469 C 352.980469 192.855469 350.644531 190.515625 350.644531 187.011719 C 350.644531 183.503906 352.980469 181.167969 356.488281 181.167969 C 359.996094 181.167969 362.332031 183.503906 362.332031 187.011719 C 362.332031 190.515625 359.996094 192.855469 356.488281 192.855469 Z M 356.488281 192.855469"/></g><path d="M 356.488281 151.945312 L 356.488281 115.710938 C 363.5 113.375 368.175781 106.945312 368.175781 99.347656 C 368.175781 89.414062 360.578125 81.816406 350.644531 81.816406 C 340.710938 81.816406 333.113281 89.414062 333.113281 99.347656 C 333.113281 106.945312 337.785156 113.375 344.800781 115.710938 L 344.800781 146.101562 L 286.359375 146.101562 L 286.359375 157.789062 L 350.644531 157.789062 C 354.148438 157.789062 356.488281 155.453125 356.488281 151.945312 Z M 350.644531 93.503906 C 354.148438 93.503906 356.488281 95.84375 356.488281 99.347656 C 356.488281 102.855469 354.148438 105.191406 350.644531 105.191406 C 347.136719 105.191406 344.800781 102.855469 344.800781 99.347656 C 344.800781 95.84375 347.136719 93.503906 350.644531 93.503906 Z M 350.644531 93.503906"/><path d="M 17.53125 169.476562 C 7.597656 169.476562 0 177.074219 0 187.011719 C 0 196.945312 7.597656 204.542969 17.53125 204.542969 C 25.128906 204.542969 31.558594 199.867188 33.894531 192.855469 L 87.660156 192.855469 L 87.660156 181.167969 L 33.894531 181.167969 C 31.558594 174.152344 25.128906 169.476562 17.53125 169.476562 Z M 17.53125 192.855469 C 14.027344 192.855469 11.6875 190.515625 11.6875 187.011719 C 11.6875 183.503906 14.027344 181.167969 17.53125 181.167969 C 21.039062 181.167969 23.375 183.503906 23.375 187.011719 C 23.375 190.515625 21.039062 192.855469 17.53125 192.855469 Z M 17.53125 192.855469"/><path d="M 29.21875 146.101562 L 29.21875 115.710938 C 36.234375 113.375 40.910156 106.945312 40.910156 99.347656 C 40.910156 89.414062 33.3125 81.816406 23.375 81.816406 C 13.441406 81.816406 5.84375 89.414062 5.84375 99.347656 C 5.84375 106.945312 10.519531 113.375 17.53125 115.710938 L 17.53125 151.945312 C 17.53125 155.453125 19.871094 157.789062 23.375 157.789062 L 87.660156 157.789062 L 87.660156 146.101562 Z M 23.375 93.503906 C 26.882812 93.503906 29.21875 95.84375 29.21875 99.347656 C 29.21875 102.855469 26.882812 105.191406 23.375 105.191406 C 19.871094 105.191406 17.53125 102.855469 17.53125 99.347656 C 17.53125 95.84375 19.871094 93.503906 23.375 93.503906 Z M 23.375 93.503906"/><path d="M 17.53125 222.074219 L 17.53125 258.308594 C 10.519531 260.644531 5.84375 267.074219 5.84375 274.671875 C 5.84375 284.605469 13.441406 292.203125 23.375 292.203125 C 33.3125 292.203125 40.910156 284.605469 40.910156 274.671875 C 40.910156 267.074219 36.234375 260.644531 29.21875 258.308594 L 29.21875 227.917969 L 87.660156 227.917969 L 87.660156 216.230469 L 23.375 216.230469 C 19.871094 216.230469 17.53125 218.566406 17.53125 222.074219 Z M 23.375 280.515625 C 19.871094 280.515625 17.53125 278.175781 17.53125 274.671875 C 17.53125 271.164062 19.871094 268.828125 23.375 268.828125 C 26.882812 268.828125 29.21875 271.164062 29.21875 274.671875 C 29.21875 278.175781 26.882812 280.515625 23.375 280.515625 Z M 23.375 280.515625"/><path fill="#FFB000" d="M 187.4375 84.652344 C 244.125 84.652344 290.203125 130.734375 290.203125 187.421875 C 290.203125 244.105469 244.125 290.1875 187.4375 290.1875 C 130.75 290.1875 84.671875 244.105469 84.671875 187.421875 C 84.671875 130.734375 130.75 84.652344 187.4375 84.652344 Z M 187.4375 84.652344"/><path fill="#9D2888" d="M 187.4375 199.753906 L 187.4375 265.523438 L 146.332031 187.421875 Z M 187.4375 199.753906"/><path fill="#9D2888" d="M 187.4375 101.097656 L 228.542969 187.421875 L 187.4375 199.753906 Z M 187.4375 101.097656"/><path fill="#FF8939" d="M 187.4375 59.988281 C 257.8125 59.988281 314.867188 117.046875 314.867188 187.421875 C 314.867188 257.796875 257.8125 314.851562 187.4375 314.851562 C 117.0625 314.851562 60.007812 257.796875 60.007812 187.421875 C 60.007812 117.046875 117.0625 59.988281 187.4375 59.988281 Z M 290.203125 187.421875 C 290.203125 130.734375 244.125 84.652344 187.4375 84.652344 C 130.75 84.652344 84.671875 130.734375 84.671875 187.421875 C 84.671875 244.105469 130.75 290.1875 187.4375 290.1875 C 244.125 290.1875 290.203125 244.105469 290.203125 187.421875 Z M 290.203125 187.421875"/><path fill="#620774" d="M 228.542969 187.421875 L 187.4375 265.523438 L 187.4375 199.753906 Z M 228.542969 187.421875"/><path fill="#C47EB8" d="M 187.4375 101.097656 L 187.4375 199.753906 L 146.332031 187.421875 Z M 187.4375 101.097656"/><path fill="#FFD066" d="M 112.394531 145.398438 C 112.394531 145.398438 111.625 124.023438 132.921875 118.613281 C 154.21875 113.203125 114.34375 159.582031 112.394531 145.398438 Z M 112.394531 145.398438"/><path fill="#36103D" d="M 191.148438 99.332031 C 190.464844 97.898438 189.023438 96.984375 187.4375 96.984375 C 185.851562 96.984375 184.40625 97.898438 183.726562 99.332031 L 142.617188 185.652344 C 142.0625 186.820312 142.089844 188.1875 142.695312 189.335938 L 183.800781 267.4375 C 184.511719 268.785156 185.910156 269.632812 187.4375 269.632812 C 188.960938 269.632812 190.363281 268.785156 191.074219 267.4375 L 232.179688 189.335938 C 232.785156 188.1875 232.8125 186.820312 232.253906 185.652344 Z M 191.546875 119.292969 L 222.773438 184.859375 L 191.546875 194.226562 Z M 183.328125 194.226562 L 152.101562 184.859375 L 183.328125 119.292969 Z M 183.328125 202.8125 L 183.328125 248.886719 L 154.53125 194.171875 Z M 191.546875 202.8125 L 220.34375 194.171875 L 191.546875 248.886719 Z M 191.546875 202.8125"/><g clip-path="url(#c)"><path fill="#36103D" d="M 187.4375 55.878906 C 114.90625 55.878906 55.898438 114.890625 55.898438 187.421875 C 55.898438 259.949219 114.90625 318.960938 187.4375 318.960938 C 259.96875 318.960938 318.976562 259.949219 318.976562 187.421875 C 318.976562 114.890625 259.96875 55.878906 187.4375 55.878906 Z M 187.4375 310.738281 C 119.4375 310.738281 64.117188 255.417969 64.117188 187.421875 C 64.117188 119.421875 119.4375 64.101562 187.4375 64.101562 C 255.4375 64.101562 310.757812 119.421875 310.757812 187.421875 C 310.757812 255.417969 255.4375 310.738281 187.4375 310.738281 Z M 187.4375 310.738281"/></g><path fill="#36103D" d="M 187.4375 80.542969 C 128.503906 80.542969 80.558594 128.488281 80.558594 187.421875 C 80.558594 246.355469 128.503906 294.296875 187.4375 294.296875 C 246.371094 294.296875 294.316406 246.355469 294.316406 187.421875 C 294.316406 128.488281 246.371094 80.542969 187.4375 80.542969 Z M 187.4375 286.078125 C 133.039062 286.078125 88.78125 241.820312 88.78125 187.421875 C 88.78125 133.023438 133.039062 88.765625 187.4375 88.765625 C 241.835938 88.765625 286.09375 133.023438 286.09375 187.421875 C 286.09375 241.820312 241.835938 286.078125 187.4375 286.078125 Z M 187.4375 286.078125"/><path fill="#36103D" d="M 221.972656 108.304688 C 219.898438 107.398438 217.46875 108.34375 216.558594 110.421875 C 215.644531 112.5 216.59375 114.925781 218.671875 115.835938 C 227.859375 119.863281 236.097656 125.550781 243.160156 132.75 C 243.964844 133.574219 245.027344 133.980469 246.09375 133.980469 C 247.132812 133.980469 248.175781 133.589844 248.972656 132.804688 C 250.59375 131.214844 250.617188 128.613281 249.027344 126.992188 C 241.230469 119.039062 232.125 112.753906 221.972656 108.304688 Z M 221.972656 108.304688"/><path fill="#36103D" d="M 253.800781 138.773438 C 251.910156 140.027344 251.390625 142.578125 252.640625 144.472656 C 254.292969 146.96875 255.820312 149.597656 257.179688 152.28125 C 257.90625 153.710938 259.351562 154.535156 260.851562 154.535156 C 261.476562 154.535156 262.109375 154.394531 262.703125 154.09375 C 264.730469 153.066406 265.539062 150.59375 264.515625 148.566406 C 263.011719 145.601562 261.324219 142.695312 259.496094 139.933594 C 258.246094 138.042969 255.695312 137.527344 253.800781 138.773438 Z M 253.800781 138.773438"/></svg>